<svg width="68" height="68" viewBox="0 0 68 68" fill="none" xmlns="http://www.w3.org/2000/svg">
<path d="M57.2144 15.9461V11.5771C57.2144 9.17373 55.2594 7.21875 52.8561 7.21875H51.4033C49 7.21875 47.045 9.17373 47.045 11.5771V15.9354H20.8949V11.5771C20.8949 9.17373 18.9399 7.21875 16.5366 7.21875H15.0838C12.6805 7.21875 10.7255 9.17373 10.7255 11.5771V15.9461C8.31381 16.0038 6.36719 17.9741 6.36719 20.3994V56.5075C6.36719 58.969 8.3697 60.9716 10.8312 60.9716H57.1088C59.5703 60.9716 61.5729 58.969 61.5729 56.5075V20.3994C61.5728 17.9741 59.6261 16.0038 57.2144 15.9461ZM49.9505 11.5771C49.9505 10.7762 50.6024 10.1243 51.4033 10.1243H52.8561C53.657 10.1243 54.3089 10.7762 54.3089 11.5771V23.1993C54.3089 24.0002 53.657 24.6521 52.8561 24.6521H51.4033C50.6024 24.6521 49.9505 24.0002 49.9505 23.1993V11.5771ZM13.631 11.5771C13.631 10.7762 14.2829 10.1243 15.0838 10.1243H16.5366C17.3375 10.1243 17.9894 10.7762 17.9894 11.5771V23.1993C17.9894 24.0002 17.3375 24.6521 16.5366 24.6521H15.0838C14.2829 24.6521 13.631 24.0002 13.631 23.1993V11.5771ZM58.6672 56.5076C58.6672 57.3666 57.9678 58.066 57.1087 58.066H10.8312C9.97214 58.066 9.27271 57.3666 9.27271 56.5076V20.3994C9.27271 19.5758 9.91537 18.8991 10.7255 18.8445V23.1993C10.7255 25.6026 12.6805 27.5576 15.0838 27.5576H16.5366C18.9399 27.5576 20.8949 25.6026 20.8949 23.1993V18.841H47.045V23.1993C47.045 25.6026 49 27.5576 51.4033 27.5576H52.8561C55.2594 27.5576 57.2144 25.6026 57.2144 23.1993V18.8445C58.0245 18.8991 58.6672 19.5758 58.6672 20.3994V56.5076Z" fill="#3E7DE6"/>
<path d="M46.9302 31.7602L43.7415 28.7891L31.6369 41.7796L24.2347 33.6371L21.0098 36.5689L31.5995 48.0363L46.9302 31.7602Z" fill="#3E7DE6"/>
</svg>
