<svg width="92" height="92" viewBox="0 0 92 92" fill="none" xmlns="http://www.w3.org/2000/svg">
<path d="M60.9598 40.1426H68.0664C68.6953 40.1426 69.2973 40.3941 69.7375 40.8344L76.8621 47.932C77.3113 48.3813 77.5629 48.9832 77.5629 49.6121V57.9227C77.5629 59.2434 76.5027 60.3035 75.191 60.3035H60.9598C59.648 60.3035 58.5879 59.2434 58.5879 57.9316V42.5145C58.5879 41.2117 59.657 40.1426 60.9598 40.1426Z" fill="#222D3B"/>
<path d="M75.1898 62.6742H60.9586C58.3352 62.6742 56.2148 60.5539 56.2148 57.9305V42.5133C56.2148 39.8898 58.3352 37.7695 60.9586 37.7695H68.0652C69.332 37.7695 70.518 38.2637 71.4164 39.1531L78.532 46.2508C79.4215 47.1402 79.9246 48.3531 79.9246 49.6109V57.9215C79.9336 60.5539 77.8133 62.6742 75.1898 62.6742ZM60.9586 42.5133V57.9305H75.1898V49.6199L68.0742 42.5223H60.9586V42.5133Z" fill="#3E7DE6"/>
<path d="M18.7949 24.7344H61.6324C64.5344 24.7344 66.8883 27.0883 66.8883 29.9902V57.4105C66.8883 60.3125 64.5344 62.6664 61.6324 62.6664H18.7949C15.893 62.6664 13.5391 60.3125 13.5391 57.4105V29.9902C13.5301 27.0883 15.884 24.7344 18.7949 24.7344Z" fill="#222D3B"/>
<path d="M62.1457 62.6754H18.275C15.6516 62.6754 13.5312 60.5551 13.5312 57.9316V29.4781C13.5312 26.8547 15.6516 24.7344 18.275 24.7344H62.1457C64.7691 24.7344 66.8895 26.8547 66.8895 29.4781V57.9316C66.8895 60.5551 64.7691 62.6754 62.1457 62.6754ZM18.275 29.4781V57.9316H62.1457V29.4781H18.275Z" fill="#3E7DE6"/>
<path d="M26.3776 55.5597C29.8097 55.4518 32.6038 58.255 32.496 61.678C32.3972 64.7866 29.8725 67.3112 26.764 67.41C23.3319 67.5178 20.5378 64.7147 20.6456 61.2917C20.7534 58.1921 23.278 55.6585 26.3776 55.5597Z" fill="#222D3B"/>
<path d="M26.9613 69.7824C22.0738 70.007 18.0578 65.982 18.2824 61.1035C18.4801 56.8449 21.9301 53.3949 26.1797 53.2062C31.0672 52.9816 35.0832 57.0066 34.8586 61.8851C34.6699 66.1347 31.2199 69.5847 26.9613 69.7824ZM26.8984 57.95C24.6793 57.7523 22.8375 59.6031 23.0352 61.8133C23.1879 63.5113 24.5535 64.8769 26.2516 65.0297C28.4707 65.2273 30.3125 63.3765 30.1148 61.1664C29.9711 59.4683 28.5965 58.0937 26.8984 57.95Z" fill="#3E7DE6"/>
<path d="M59.5847 56.7452C63.0167 56.6374 65.8108 59.4405 65.703 62.8636C65.6042 65.9722 63.0796 68.4968 59.971 68.5956C56.539 68.7034 53.7448 65.9003 53.8526 62.4772C53.9515 59.3776 56.4761 56.844 59.5847 56.7452Z" fill="#222D3B"/>
<path d="M60.1684 70.968C55.2809 71.1926 51.2648 67.1676 51.4895 62.289C51.6871 58.0304 55.1371 54.5805 59.3867 54.3918C64.2742 54.1672 68.2902 58.1922 68.0656 63.0707C67.868 67.3203 64.427 70.7703 60.1684 70.968ZM60.0965 59.1355C57.8773 58.9379 56.0356 60.7887 56.2332 62.9988C56.3859 64.6969 57.7516 66.0625 59.4496 66.2152C61.6688 66.4129 63.5106 64.5621 63.3129 62.3519C63.1691 60.6539 61.8035 59.2793 60.0965 59.1355Z" fill="#3E7DE6"/>
<path d="M62.1445 47.2578H76.3758V52.0016H62.1445V47.2578Z" fill="#3E7DE6"/>
</svg>
