<svg width="87" height="87" viewBox="0 0 87 87" fill="none" xmlns="http://www.w3.org/2000/svg">
<path d="M20.7988 40.4406H33.509V51.0437H20.7988V40.4406ZM20.7988 65.1473H33.509V54.5441H20.7988V65.1473ZM20.7988 79.2168H33.509V68.6137H20.7988V79.2168ZM37.2812 65.1473H49.9574V54.5441H37.2473V65.1473H37.2812ZM37.2812 79.2168H49.9574V68.6137H37.2473V79.2168H37.2812ZM53.7637 68.6137V79.2168H66.4738V68.6137H53.7637ZM86.6605 27.2547L43.6023 7L0.578125 27.3227L3.26289 32.9301L8.73438 30.3133V79.2508H14.9195V30.1094H72.3531V79.3187H78.5383V30.3812L84.0098 32.9301L86.6605 27.2547Z" fill="#3E7DE6"/>
</svg>
