<svg width="34" height="34" viewBox="0 0 34 34" fill="none" xmlns="http://www.w3.org/2000/svg">
<g filter="url(#filter0_d_1321_114)">
<path d="M17.0009 18.1049L7.47886 13.002L11.3702 10.9146L9.63075 9.98242L4 13.002L17.0009 19.9673L30 13.002L24.3692 9.98242L22.6335 10.9146L26.523 13.002L17.0009 18.1049Z" fill="#A2B1CA"/>
<path d="M17.0009 24.1381L7.47886 19.0352L11.3702 16.9478L9.63075 16.0156L4 19.0352L17.0009 26.0005L30 19.0352L24.3692 16.0156L22.6335 16.9478L26.523 19.0352L17.0009 24.1381Z" fill="#A2B1CA"/>
<path d="M17.0009 0L4 6.96532L17.0009 13.9286L30 6.96329L17.0009 0ZM17.0009 1.86242L26.523 6.96532L17.0009 12.0682L7.47886 6.96532L17.0009 1.86242Z" fill="#A2B1CA"/>
</g>
<defs>
<filter id="filter0_d_1321_114" x="0" y="0" width="34" height="34" filterUnits="userSpaceOnUse" color-interpolation-filters="sRGB">
<feFlood flood-opacity="0" result="BackgroundImageFix"/>
<feColorMatrix in="SourceAlpha" type="matrix" values="0 0 0 0 0 0 0 0 0 0 0 0 0 0 0 0 0 0 127 0" result="hardAlpha"/>
<feOffset dy="4"/>
<feGaussianBlur stdDeviation="2"/>
<feComposite in2="hardAlpha" operator="out"/>
<feColorMatrix type="matrix" values="0 0 0 0 0 0 0 0 0 0 0 0 0 0 0 0 0 0 0.25 0"/>
<feBlend mode="normal" in2="BackgroundImageFix" result="effect1_dropShadow_1321_114"/>
<feBlend mode="normal" in="SourceGraphic" in2="effect1_dropShadow_1321_114" result="shape"/>
</filter>
</defs>
</svg>
