<svg width="26" height="26" viewBox="0 0 26 26" fill="none" xmlns="http://www.w3.org/2000/svg">
<path fill-rule="evenodd" clip-rule="evenodd" d="M3.66928 4.82114C2.65391 6.86763 2 9.75849 2 13C2 16.2415 2.65391 19.1324 3.66928 21.1789C4.72689 23.3105 5.98176 24.186 7 24.186C8.01824 24.186 9.27311 23.3105 10.3307 21.1789C11.3461 19.1324 12 16.2415 12 13C12 9.75849 11.3461 6.86763 10.3307 4.82114C9.27311 2.6895 8.01824 1.81395 7 1.81395C5.98176 1.81395 4.72689 2.6895 3.66928 4.82114ZM10.6519 1.81395C11.2375 2.46207 11.7397 3.24074 12.1545 4.07675C13.3108 6.40706 14 9.56273 14 13C14 16.4373 13.3108 19.5929 12.1545 21.9232C11.7397 22.7593 11.2375 23.538 10.6519 24.186H19C20.0183 24.186 21.2731 23.3105 22.3307 21.1789C23.3461 19.1324 24 16.2415 24 13C24 9.75849 23.3461 6.86763 22.3307 4.82114C21.2731 2.6895 20.0183 1.81395 19 1.81395H10.6519ZM7 0H19C21.2955 0 23.0407 1.83157 24.1545 4.07675C25.3108 6.40706 26 9.56273 26 13C26 16.4373 25.3108 19.5929 24.1545 21.9232C23.0407 24.1684 21.2955 26 19 26H7C4.70453 26 2.95939 24.1684 1.84544 21.9232C0.68924 19.5929 0 16.4373 0 13C0 9.56273 0.68924 6.40706 1.84544 4.07675C2.95939 1.83157 4.70453 0 7 0ZM6.55593 8.08934C6.21903 9.31159 6 11.0482 6 13C6 14.9518 6.21903 16.6884 6.55593 17.9106C6.69905 18.4299 6.85388 18.8205 7 19.0861C7.14612 18.8205 7.30095 18.4299 7.44407 17.9106C7.7278 16.8814 7.92792 15.4872 7.98403 13.907H7.66667C7.11439 13.907 6.66667 13.5009 6.66667 13C6.66667 12.4991 7.11439 12.093 7.66667 12.093H7.98403C7.92792 10.5128 7.7278 9.11867 7.44407 8.08934C7.30095 7.5701 7.14612 7.17947 7 6.91397C6.85388 7.17947 6.69905 7.5701 6.55593 8.08934ZM7.23145 6.59214C7.23145 6.59214 7.2276 6.59612 7.21951 6.60119C7.22735 6.59419 7.23145 6.59214 7.23145 6.59214ZM6.78049 6.60119C6.7724 6.59612 6.76855 6.59214 6.76855 6.59214C6.76855 6.59214 6.77265 6.59419 6.78049 6.60119ZM6.76855 19.4079C6.76855 19.4079 6.7724 19.4039 6.78049 19.3988C6.77265 19.4058 6.76855 19.4079 6.76855 19.4079ZM7.21951 19.3988C7.2276 19.4039 7.23145 19.4079 7.23145 19.4079C7.23145 19.4079 7.22735 19.4058 7.21951 19.3988ZM5.36064 5.85289C5.63052 5.43876 6.15203 4.83721 7 4.83721C7.84797 4.83721 8.36948 5.43876 8.63936 5.85289C8.9488 6.32772 9.1928 6.95444 9.38436 7.64939C9.77131 9.05322 10 10.9445 10 13C10 15.0555 9.77131 16.9468 9.38436 18.3506C9.1928 19.0455 8.9488 19.6723 8.63936 20.1471C8.36948 20.5613 7.84797 21.1628 7 21.1628C6.15203 21.1628 5.63052 20.5613 5.36064 20.1471C5.0512 19.6723 4.8072 19.0455 4.61564 18.3506C4.22869 16.9468 4 15.0555 4 13C4 10.9445 4.22869 9.05322 4.61564 7.64939C4.8072 6.95444 5.0512 6.32772 5.36064 5.85289Z" fill="#A2B1CA"/>
</svg>
