<svg width="34" height="34" viewBox="0 0 34 34" fill="none" xmlns="http://www.w3.org/2000/svg">
<g filter="url(#filter0_d_1321_154)">
<path d="M17 0C14.4288 0 11.9154 0.762437 9.77759 2.19089C7.63975 3.61935 5.97351 5.64967 4.98957 8.02511C4.00563 10.4006 3.74819 13.0144 4.2498 15.5362C4.7514 18.0579 5.98953 20.3743 7.80762 22.1924C9.6257 24.0105 11.9421 25.2486 14.4638 25.7502C16.9856 26.2518 19.5994 25.9944 21.9749 25.0104C24.3503 24.0265 26.3806 22.3602 27.8091 20.2224C29.2376 18.0846 30 15.5712 30 13C30 11.2928 29.6637 9.60235 29.0104 8.02511C28.3571 6.44788 27.3995 5.01477 26.1924 3.80761C24.9852 2.60045 23.5521 1.64288 21.9749 0.989566C20.3977 0.336255 18.7072 0 17 0ZM24.371 20.332C24.6421 20.0586 24.8262 19.7112 24.9002 19.3333C24.9741 18.9555 24.9346 18.5643 24.7865 18.2089C24.6385 17.8535 24.3885 17.5499 24.0682 17.3363C23.7479 17.1228 23.3715 17.0088 22.9865 17.0088C22.6015 17.0088 22.2251 17.1228 21.9048 17.3363C21.5845 17.5499 21.3345 17.8535 21.1865 18.2089C21.0384 18.5643 20.9989 18.9555 21.0728 19.3333C21.1468 19.7112 21.3309 20.0586 21.602 20.332C21.7824 20.5163 21.9978 20.6628 22.2355 20.7628C22.4733 20.8628 22.7286 20.9143 22.9865 20.9143C23.2444 20.9143 23.4997 20.8628 23.7375 20.7628C23.9752 20.6628 24.1906 20.5163 24.371 20.332C22.4224 22.269 19.7865 23.3562 17.039 23.3562C14.2915 23.3562 11.6556 22.269 9.707 20.332C9.98035 20.6031 10.3278 20.7872 10.7057 20.8612C11.0835 20.9351 11.4747 20.8956 11.8301 20.7475C12.1855 20.5995 12.4891 20.3495 12.7027 20.0292C12.9162 19.7089 13.0302 19.3325 13.0302 18.9475C13.0302 18.5625 12.9162 18.1861 12.7027 17.8658C12.4891 17.5455 12.1855 17.2955 11.8301 17.1475C11.4747 16.9994 11.0835 16.9599 10.7057 17.0338C10.3278 17.1078 9.98035 17.2919 9.707 17.563C9.52265 17.7434 9.37618 17.9588 9.27618 18.1965C9.17618 18.4343 9.12467 18.6896 9.12467 18.9475C9.12467 19.2054 9.17618 19.4607 9.27618 19.6985C9.37618 19.9362 9.52265 20.1516 9.707 20.332C7.76999 18.3834 6.68276 15.7475 6.68276 13C6.68276 10.2525 7.76999 7.61657 9.707 5.668C9.43589 5.94134 9.25176 6.28882 9.17781 6.66665C9.10387 7.04447 9.14341 7.43573 9.29147 7.79112C9.43953 8.1465 9.68948 8.4501 10.0098 8.66367C10.3301 8.87723 10.7065 8.99119 11.0915 8.99119C11.4765 8.99119 11.8529 8.87723 12.1732 8.66367C12.4935 8.4501 12.7435 8.1465 12.8915 7.79112C13.0396 7.43573 13.0791 7.04447 13.0052 6.66665C12.9312 6.28882 12.7471 5.94134 12.476 5.668C12.2956 5.48365 12.0802 5.33717 11.8425 5.23718C11.6047 5.13718 11.3494 5.08567 11.0915 5.08567C10.8336 5.08567 10.5783 5.13718 10.3405 5.23718C10.1028 5.33717 9.88738 5.48365 9.707 5.668C11.6556 3.73099 14.2915 2.64376 17.039 2.64376C19.7865 2.64376 22.4224 3.73099 24.371 5.668C24.0977 5.39689 23.7502 5.21275 23.3724 5.13881C22.9945 5.06486 22.6033 5.10441 22.2479 5.25247C21.8925 5.40053 21.5889 5.65047 21.3753 5.9708C21.1618 6.29113 21.0478 6.66751 21.0478 7.0525C21.0478 7.43749 21.1618 7.81387 21.3753 8.1342C21.5889 8.45453 21.8925 8.70447 22.2479 8.85253C22.6033 9.00059 22.9945 9.04014 23.3724 8.96619C23.7502 8.89224 24.0977 8.70811 24.371 8.437C24.5554 8.25662 24.7018 8.04124 24.8018 7.80349C24.9018 7.56574 24.9533 7.31042 24.9533 7.0525C24.9533 6.79458 24.9018 6.53925 24.8018 6.30151C24.7018 6.06376 24.5554 5.84838 24.371 5.668C26.308 7.61657 27.3952 10.2525 27.3952 13C27.3952 15.7475 26.308 18.3834 24.371 20.332Z" fill="#A2B1CA"/>
<path d="M17 6.5C15.7144 6.5 14.4577 6.88122 13.3888 7.59545C12.3199 8.30968 11.4868 9.32484 10.9948 10.5126C10.5028 11.7003 10.3741 13.0072 10.6249 14.2681C10.8757 15.529 11.4948 16.6872 12.4038 17.5962C13.3128 18.5052 14.471 19.1243 15.7319 19.3751C16.9928 19.6259 18.2997 19.4972 19.4874 19.0052C20.6752 18.5132 21.6903 17.6801 22.4046 16.6112C23.1188 15.5423 23.5 14.2856 23.5 13C23.5 11.2761 22.8152 9.62279 21.5962 8.40381C20.3772 7.18482 18.7239 6.5 17 6.5ZM17 16.9C16.2287 16.9 15.4746 16.6713 14.8333 16.2427C14.1919 15.8142 13.6921 15.2051 13.3969 14.4925C13.1017 13.7798 13.0245 12.9957 13.1749 12.2391C13.3254 11.4826 13.6969 10.7877 14.2423 10.2423C14.7877 9.69686 15.4826 9.32542 16.2391 9.17494C16.9957 9.02445 17.7798 9.10169 18.4925 9.39687C19.2051 9.69205 19.8142 10.1919 20.2427 10.8333C20.6713 11.4746 20.9 12.2287 20.9 13C20.9 14.0343 20.4891 15.0263 19.7577 15.7577C19.0263 16.4891 18.0343 16.9 17 16.9Z" fill="#A2B1CA"/>
<path d="M17.0008 6.49961C18.0777 6.49961 18.9508 5.62656 18.9508 4.54961C18.9508 3.47265 18.0777 2.59961 17.0008 2.59961C15.9238 2.59961 15.0508 3.47265 15.0508 4.54961C15.0508 5.62656 15.9238 6.49961 17.0008 6.49961Z" fill="#A2B1CA"/>
<path d="M17.0008 23.4C18.0777 23.4 18.9508 22.527 18.9508 21.45C18.9508 20.373 18.0777 19.5 17.0008 19.5C15.9238 19.5 15.0508 20.373 15.0508 21.45C15.0508 22.527 15.9238 23.4 17.0008 23.4Z" fill="#A2B1CA"/>
<path d="M8.54961 14.9508C9.62656 14.9508 10.4996 14.0777 10.4996 13.0008C10.4996 11.9238 9.62656 11.0508 8.54961 11.0508C7.47265 11.0508 6.59961 11.9238 6.59961 13.0008C6.59961 14.0777 7.47265 14.9508 8.54961 14.9508Z" fill="#A2B1CA"/>
<path d="M25.45 14.9508C26.527 14.9508 27.4 14.0777 27.4 13.0008C27.4 11.9238 26.527 11.0508 25.45 11.0508C24.373 11.0508 23.5 11.9238 23.5 13.0008C23.5 14.0777 24.373 14.9508 25.45 14.9508Z" fill="#A2B1CA"/>
</g>
<defs>
<filter id="filter0_d_1321_154" x="0" y="0" width="34" height="34" filterUnits="userSpaceOnUse" color-interpolation-filters="sRGB">
<feFlood flood-opacity="0" result="BackgroundImageFix"/>
<feColorMatrix in="SourceAlpha" type="matrix" values="0 0 0 0 0 0 0 0 0 0 0 0 0 0 0 0 0 0 127 0" result="hardAlpha"/>
<feOffset dy="4"/>
<feGaussianBlur stdDeviation="2"/>
<feComposite in2="hardAlpha" operator="out"/>
<feColorMatrix type="matrix" values="0 0 0 0 0 0 0 0 0 0 0 0 0 0 0 0 0 0 0.25 0"/>
<feBlend mode="normal" in2="BackgroundImageFix" result="effect1_dropShadow_1321_154"/>
<feBlend mode="normal" in="SourceGraphic" in2="effect1_dropShadow_1321_154" result="shape"/>
</filter>
</defs>
</svg>
