<svg width="34" height="34" viewBox="0 0 34 34" fill="none" xmlns="http://www.w3.org/2000/svg">
<g filter="url(#filter0_d_1333_23)">
<path fill-rule="evenodd" clip-rule="evenodd" d="M27.0142 25.5584C27.877 26.4602 28.4099 25.819 29.1183 25.0829C29.8267 24.3469 30.4409 23.7902 29.5781 22.8901C29.5781 22.8901 17.5516 10.3775 14.5815 7.29297L12.0176 9.96129L27.0142 25.5584Z" fill="#A2B1CA"/>
<path fill-rule="evenodd" clip-rule="evenodd" d="M7.24184 12.1335L8.23945 11.1115C8.23945 11.1115 7.79913 9.85436 8.44417 9.252C9.0892 8.64964 10.1778 9.02189 10.1778 9.02189L13.6792 5.49739C13.6792 5.49739 13.4338 3.66493 13.7588 3.32652C14.0838 2.98812 17.7151 1.1455 18.0661 0.77664L17.3203 0C17.3203 0 12.238 0.636202 11.6872 1.20811C11.3639 1.54651 8.9446 4.09132 7.21909 5.88825C7.21909 5.88825 7.65128 7.1725 7.08261 7.76471C6.51231 8.35861 5.22874 7.93391 5.22874 7.93391C4.6227 8.56504 4.21651 8.98635 4.21651 8.98635C3.7892 9.43474 4.04104 10.0642 4.56584 10.6107L5.68043 11.7714C6.20848 12.3196 6.81452 12.5785 7.24184 12.1335Z" fill="#A2B1CA"/>
<path fill-rule="evenodd" clip-rule="evenodd" d="M22.9783 9.59559C24.7282 10.4602 26.9232 10.1946 28.3758 8.6819C29.4969 7.5144 29.9421 5.90867 29.7032 4.39938L27.2319 6.96957L25.1295 7.51271L22.7541 5.0728L23.3114 2.81057L25.7599 0.29283C24.309 0.0457941 22.6696 0.402812 21.5485 1.572C20.0943 3.08637 19.8961 5.42813 20.7264 7.25214L19.1113 8.93232C19.8214 9.66835 20.5801 10.4585 21.3665 11.2758L22.9783 9.59559Z" fill="#A2B1CA"/>
<path fill-rule="evenodd" clip-rule="evenodd" d="M15.9896 17.3847L13.5443 14.8398L11.4191 17.0547C11.2859 17.1901 11.1916 17.344 11.125 17.5048C10.9999 17.454 10.9301 17.4523 10.8862 17.4709C10.48 17.3305 10.0511 17.2358 9.60099 17.2358C7.35718 17.2358 5.53906 19.1054 5.53906 21.4134C5.53906 23.7213 7.35718 25.591 9.60099 25.591C11.8448 25.591 13.6629 23.7213 13.6629 21.4134C13.6629 20.9345 13.5671 20.4811 13.4257 20.053C13.4176 20.0124 13.416 19.9751 13.3932 19.9159C13.5622 19.8432 13.7214 19.745 13.8611 19.5978L15.9896 17.3847ZM9.60099 23.8465C8.28168 23.8465 7.2142 22.7585 7.2142 21.4134C7.2142 20.0682 8.28005 18.9802 9.60099 18.9802C10.9219 18.9802 11.9878 20.0682 11.9878 21.4134C11.9878 22.7585 10.9203 23.8465 9.60099 23.8465Z" fill="#A2B1CA"/>
</g>
<defs>
<filter id="filter0_d_1333_23" x="0" y="0" width="34" height="34" filterUnits="userSpaceOnUse" color-interpolation-filters="sRGB">
<feFlood flood-opacity="0" result="BackgroundImageFix"/>
<feColorMatrix in="SourceAlpha" type="matrix" values="0 0 0 0 0 0 0 0 0 0 0 0 0 0 0 0 0 0 127 0" result="hardAlpha"/>
<feOffset dy="4"/>
<feGaussianBlur stdDeviation="2"/>
<feComposite in2="hardAlpha" operator="out"/>
<feColorMatrix type="matrix" values="0 0 0 0 0 0 0 0 0 0 0 0 0 0 0 0 0 0 0.25 0"/>
<feBlend mode="normal" in2="BackgroundImageFix" result="effect1_dropShadow_1333_23"/>
<feBlend mode="normal" in="SourceGraphic" in2="effect1_dropShadow_1333_23" result="shape"/>
</filter>
</defs>
</svg>
