<svg width="34" height="34" viewBox="0 0 34 34" fill="none" xmlns="http://www.w3.org/2000/svg">
<g filter="url(#filter0_d_1321_171)">
<path d="M9.53532 16.5215C7.35762 16.5215 5.58594 18.2921 5.58594 20.4683C5.58594 22.6446 7.35762 24.4152 9.53532 24.4152C11.713 24.4152 13.4846 22.6446 13.4846 20.4683C13.4846 18.292 11.713 16.5215 9.53532 16.5215ZM9.53532 23.3322C7.95515 23.3322 6.66961 22.0474 6.66961 20.4683C6.66961 18.8891 7.95515 17.6044 9.53532 17.6044C11.1154 17.6044 12.401 18.8891 12.401 20.4683C12.401 22.0474 11.1154 23.3322 9.53532 23.3322Z" fill="#A2B1CA"/>
<path d="M9.53571 19.0527C8.7557 19.0527 8.12109 19.6869 8.12109 20.4665C8.12109 21.246 8.7557 21.8802 9.53571 21.8802C10.3157 21.8802 10.9503 21.246 10.9503 20.4665C10.9503 19.6869 10.3157 19.0527 9.53571 19.0527ZM9.53571 20.7971C9.35323 20.7971 9.20477 20.6488 9.20477 20.4664C9.20477 20.284 9.35323 20.1357 9.53571 20.1357C9.71819 20.1357 9.86665 20.284 9.86665 20.4664C9.86665 20.6488 9.71819 20.7971 9.53571 20.7971Z" fill="#A2B1CA"/>
<path d="M12.7207 6.46814C13.8375 6.46814 14.7461 5.56011 14.7461 4.44403C14.7461 3.32795 13.8375 2.41992 12.7207 2.41992C11.6039 2.41992 10.6953 3.32795 10.6953 4.44403C10.6953 5.56011 11.6039 6.46814 12.7207 6.46814ZM12.7207 3.50291C13.24 3.50291 13.6624 3.9251 13.6624 4.44403C13.6624 4.96296 13.24 5.38515 12.7207 5.38515C12.2014 5.38515 11.779 4.96296 11.779 4.44403C11.779 3.9251 12.2014 3.50291 12.7207 3.50291Z" fill="#A2B1CA"/>
<path d="M26.5401 12.1982C26.9958 12.1982 27.3653 11.829 27.3653 11.3735C27.3653 10.9181 26.9958 10.5488 26.5401 10.5488C26.0843 10.5488 25.7148 10.9181 25.7148 11.3735C25.7148 11.829 26.0843 12.1982 26.5401 12.1982Z" fill="#A2B1CA"/>
<path d="M28.3473 14.3189C29.3378 13.7102 30 12.6176 30 11.3727C30 10.1429 29.3535 9.06168 28.3829 8.44871L14.9498 0.598292L14.951 0.602082C14.2946 0.220027 13.5327 0 12.7199 0C10.7669 0 9.10488 1.26493 8.50838 3.01769C8.48622 3.08285 4.1702 19.0976 4.14058 19.226L4.14034 19.2269L4.1404 19.2269C4.04858 19.6258 4 20.041 4 20.4673C4 23.518 6.48354 26 9.53618 26C10.5839 26 11.5645 25.7075 12.4007 25.2001C12.4727 25.1565 28.3281 14.3307 28.3473 14.3189ZM25.7914 14.7472L14.7706 22.2693C14.966 21.7041 15.0724 21.098 15.0724 20.4674C15.0724 17.4166 12.5888 14.9347 9.53618 14.9347C8.24625 14.9347 7.058 15.3779 6.11575 16.1199L8.71861 6.38597C9.44094 7.86756 10.963 8.89099 12.7199 8.89099C15.1728 8.89099 17.1682 6.89672 17.1682 4.44549C17.1682 3.94287 17.0831 3.46003 16.9286 3.00903L25.566 8.05612C24.1317 8.47789 23.0814 9.80461 23.0814 11.3727C23.0814 13.0218 24.2431 14.4041 25.7914 14.7472ZM26.5407 13.7468C25.2308 13.7468 24.1651 12.6818 24.1651 11.3727C24.1651 10.0635 25.2308 8.9985 26.5407 8.9985C27.8507 8.9985 28.9164 10.0636 28.9164 11.3727C28.9164 12.6818 27.8507 13.7468 26.5407 13.7468ZM12.7199 1.08299C14.5752 1.08299 16.0846 2.59141 16.0846 4.44549C16.0846 6.29957 14.5752 7.808 12.7199 7.808C10.8647 7.808 9.35533 6.29957 9.35533 4.44549C9.35533 2.59141 10.8646 1.08299 12.7199 1.08299ZM5.08367 20.4674C5.08367 18.0138 7.08106 16.0177 9.53618 16.0177C11.9913 16.0177 13.9887 18.0138 13.9887 20.4674C13.9887 22.9209 11.9913 24.9171 9.53618 24.9171C7.08106 24.9171 5.08367 22.9209 5.08367 20.4674Z" fill="#A2B1CA"/>
</g>
<defs>
<filter id="filter0_d_1321_171" x="0" y="0" width="34" height="34" filterUnits="userSpaceOnUse" color-interpolation-filters="sRGB">
<feFlood flood-opacity="0" result="BackgroundImageFix"/>
<feColorMatrix in="SourceAlpha" type="matrix" values="0 0 0 0 0 0 0 0 0 0 0 0 0 0 0 0 0 0 127 0" result="hardAlpha"/>
<feOffset dy="4"/>
<feGaussianBlur stdDeviation="2"/>
<feComposite in2="hardAlpha" operator="out"/>
<feColorMatrix type="matrix" values="0 0 0 0 0 0 0 0 0 0 0 0 0 0 0 0 0 0 0.25 0"/>
<feBlend mode="normal" in2="BackgroundImageFix" result="effect1_dropShadow_1321_171"/>
<feBlend mode="normal" in="SourceGraphic" in2="effect1_dropShadow_1321_171" result="shape"/>
</filter>
</defs>
</svg>
