<svg width="34" height="34" viewBox="0 0 34 34" fill="none" xmlns="http://www.w3.org/2000/svg">
<g filter="url(#filter0_d_1321_168)">
<path d="M29.246 0.730847C28.2775 -0.243336 26.5788 -0.243743 25.6077 0.73039L22.8873 3.45298C22.0418 4.29963 21.9179 5.59043 22.4981 6.57763L19.6572 9.42124C18.6779 8.8665 17.3549 8.98838 16.5406 9.80556L13.8202 12.5281C12.9743 13.3753 12.8508 14.6656 13.4315 15.6528L10.5905 18.4964C9.60991 17.9417 8.28954 18.0644 7.474 18.8807L4.75395 21.6033C4.26782 22.0894 4 22.7361 4 23.4249C4 24.1128 4.26782 24.76 4.754 25.2458C5.23891 25.7324 5.885 26 6.57314 26C7.26127 26 7.90736 25.7324 8.39227 25.2458L11.1127 22.5232C11.9586 21.6761 12.0821 20.3857 11.5014 19.3985L14.3367 16.5605C14.7285 16.7926 15.1722 16.9253 15.6398 16.9253C16.3266 16.9253 16.9727 16.6573 17.4589 16.1706L20.1781 13.448C20.6643 12.9618 20.9321 12.3151 20.9321 11.6272C20.9321 11.1596 20.7995 10.7155 20.5681 10.3234L23.4034 7.48543C23.7951 7.71705 24.2389 7.84977 24.7065 7.84977C25.3933 7.84977 26.0394 7.58216 26.5256 7.09552L29.2448 4.37293C29.7322 3.8867 30 3.24001 30 2.55209C30 1.86331 29.7322 1.21616 29.246 0.730847ZM10.194 21.6032L7.47359 24.3258C6.99391 24.8073 6.15323 24.8073 5.67355 24.3258C5.43218 24.0851 5.3 23.7646 5.3 23.4249C5.3 23.0844 5.43218 22.7643 5.67309 22.5232L8.39227 19.8006C8.63364 19.5598 8.95346 19.4271 9.29359 19.4271C9.40018 19.4271 9.49854 19.4623 9.59909 19.4879L9.29273 19.7945C9.04227 20.0452 9.04227 20.4512 9.29273 20.7019C9.54318 20.9527 9.94877 20.9526 10.1993 20.7019L10.5061 20.3948C10.6118 20.8151 10.5217 21.2753 10.194 21.6032ZM19.2598 12.5276L16.5406 15.2502C16.2243 15.566 15.7615 15.6527 15.3416 15.5556L15.6401 15.2567C15.8906 15.006 15.8906 14.6001 15.6401 14.3493C15.3897 14.0987 14.9841 14.0987 14.7336 14.3493L14.4268 14.6564C14.3219 14.2361 14.4116 13.7759 14.7392 13.448L17.4597 10.7255C17.6997 10.4847 18.0195 10.3524 18.3597 10.3524C18.4668 10.3524 18.5651 10.3875 18.6661 10.4127L18.3601 10.7189C18.1097 10.9696 18.1097 11.3756 18.3601 11.6263C18.6106 11.877 19.0162 11.877 19.2667 11.6263L19.573 11.3201C19.5977 11.4211 19.6329 11.5196 19.6329 11.6268C19.633 11.9668 19.5008 12.2869 19.2598 12.5276ZM28.3269 3.45298L25.6077 6.17557C25.2914 6.49091 24.8281 6.57849 24.4078 6.48095L24.7068 6.18167C24.9573 5.93098 24.9573 5.52501 24.7068 5.27428C24.4564 5.02354 24.0508 5.02359 23.8003 5.27428L23.4935 5.58138C23.3886 5.16108 23.4787 4.70133 23.8063 4.37344L26.5268 1.65085C26.7668 1.41012 27.0866 1.27741 27.4268 1.27741C27.767 1.27741 28.0868 1.41012 28.3269 1.65085C28.5678 1.89112 28.6999 2.21123 28.6999 2.55214C28.7 2.89173 28.5678 3.21226 28.3269 3.45298Z" fill="#A2B1CA"/>
</g>
<defs>
<filter id="filter0_d_1321_168" x="0" y="0" width="34" height="34" filterUnits="userSpaceOnUse" color-interpolation-filters="sRGB">
<feFlood flood-opacity="0" result="BackgroundImageFix"/>
<feColorMatrix in="SourceAlpha" type="matrix" values="0 0 0 0 0 0 0 0 0 0 0 0 0 0 0 0 0 0 127 0" result="hardAlpha"/>
<feOffset dy="4"/>
<feGaussianBlur stdDeviation="2"/>
<feComposite in2="hardAlpha" operator="out"/>
<feColorMatrix type="matrix" values="0 0 0 0 0 0 0 0 0 0 0 0 0 0 0 0 0 0 0.25 0"/>
<feBlend mode="normal" in2="BackgroundImageFix" result="effect1_dropShadow_1321_168"/>
<feBlend mode="normal" in="SourceGraphic" in2="effect1_dropShadow_1321_168" result="shape"/>
</filter>
</defs>
</svg>
