<svg width="34" height="34" viewBox="0 0 34 34" fill="none" xmlns="http://www.w3.org/2000/svg">
<g filter="url(#filter0_d_1333_13)">
<path d="M29.8414 24.047L18.0652 0.611397C17.9518 0.423401 17.7979 0.269187 17.6172 0.162508C17.4365 0.0558288 17.2347 0 17.0296 0C16.8245 0 16.6226 0.0558288 16.4419 0.162508C16.2612 0.269187 16.1074 0.423401 15.994 0.611397L4.15865 24.047C4.05554 24.2434 4.00085 24.4661 4.00001 24.6928C3.99916 24.9196 4.05219 25.1428 4.15383 25.3401C4.25548 25.5374 4.40221 25.7021 4.57951 25.8178C4.75681 25.9336 4.95851 25.9964 5.16465 26H28.8353C29.0415 25.9964 29.2432 25.9336 29.4205 25.8178C29.5978 25.7021 29.7445 25.5374 29.8462 25.3401C29.9478 25.1428 30.0008 24.9196 30 24.6928C29.9991 24.4661 29.9445 24.2434 29.8414 24.047ZM19.8405 14.6728L14.7513 21.3129C14.7199 21.3733 14.668 21.4175 14.6069 21.4358C14.5459 21.4542 14.4807 21.4451 14.4258 21.4105C14.3709 21.376 14.3307 21.3189 14.314 21.2517C14.2974 21.1846 14.3057 21.1129 14.337 21.0525L15.8165 16.2352H13.4494C13.3395 16.2352 13.2318 16.2015 13.1383 16.1379C13.0448 16.0744 12.9693 15.9834 12.9201 15.8753C12.871 15.7672 12.8502 15.6461 12.86 15.5257C12.8699 15.4053 12.91 15.2903 12.976 15.1936L18.0652 8.48837C18.2427 8.29308 18.5978 8.55347 18.4794 8.81387L17 13.6312H19.3671C19.477 13.6312 19.5847 13.6649 19.6782 13.7284C19.7717 13.792 19.8472 13.8829 19.8964 13.9911C19.9455 14.0992 19.9663 14.2202 19.9564 14.3406C19.9466 14.4611 19.9064 14.5761 19.8405 14.6728Z" fill="#A2B1CA"/>
</g>
<defs>
<filter id="filter0_d_1333_13" x="0" y="0" width="34" height="34" filterUnits="userSpaceOnUse" color-interpolation-filters="sRGB">
<feFlood flood-opacity="0" result="BackgroundImageFix"/>
<feColorMatrix in="SourceAlpha" type="matrix" values="0 0 0 0 0 0 0 0 0 0 0 0 0 0 0 0 0 0 127 0" result="hardAlpha"/>
<feOffset dy="4"/>
<feGaussianBlur stdDeviation="2"/>
<feComposite in2="hardAlpha" operator="out"/>
<feColorMatrix type="matrix" values="0 0 0 0 0 0 0 0 0 0 0 0 0 0 0 0 0 0 0.25 0"/>
<feBlend mode="normal" in2="BackgroundImageFix" result="effect1_dropShadow_1333_13"/>
<feBlend mode="normal" in="SourceGraphic" in2="effect1_dropShadow_1333_13" result="shape"/>
</filter>
</defs>
</svg>
