<svg width="38" height="33" viewBox="0 0 38 33" fill="none" xmlns="http://www.w3.org/2000/svg">
<g filter="url(#filter0_d_1320_188)">
<path d="M11.047 11.5602H15.4765V15.2256H11.047V11.5602ZM11.047 20.101H15.4765V16.4356H11.047V20.101ZM11.047 24.9648H15.4765V21.2993H11.047V24.9648ZM16.7912 20.101H21.2088V16.4356H16.7793V20.101H16.7912ZM16.7912 24.9648H21.2088V21.2993H16.7793V24.9648H16.7912ZM22.5353 21.2993V24.9648H26.9649V21.2993H22.5353ZM34 7.00188L18.9941 0L4 7.02538L4.93565 8.96382L6.84248 8.05921V24.9765H8.99803V7.98872H29.0138V25H31.1694V8.08271L33.0762 8.96382L34 7.00188Z" fill="#A2B1CA"/>
</g>
<defs>
<filter id="filter0_d_1320_188" x="0" y="0" width="38" height="33" filterUnits="userSpaceOnUse" color-interpolation-filters="sRGB">
<feFlood flood-opacity="0" result="BackgroundImageFix"/>
<feColorMatrix in="SourceAlpha" type="matrix" values="0 0 0 0 0 0 0 0 0 0 0 0 0 0 0 0 0 0 127 0" result="hardAlpha"/>
<feOffset dy="4"/>
<feGaussianBlur stdDeviation="2"/>
<feComposite in2="hardAlpha" operator="out"/>
<feColorMatrix type="matrix" values="0 0 0 0 0 0 0 0 0 0 0 0 0 0 0 0 0 0 0.25 0"/>
<feBlend mode="normal" in2="BackgroundImageFix" result="effect1_dropShadow_1320_188"/>
<feBlend mode="normal" in="SourceGraphic" in2="effect1_dropShadow_1320_188" result="shape"/>
</filter>
</defs>
</svg>
